<svg xmlns="http://www.w3.org/2000/svg" fill-rule="evenodd" stroke-linejoin="round" stroke-miterlimit="1" clip-rule="evenodd" version="1" viewBox="0 0 688 512"><path fill="#29263d" d="M536 144a80 80 0 10-102 77c-1 16-5 28-11 37-16 19-50 22-86 25-28 3-57 6-81 17V156a80 80 0 10-48 0v200a80 80 0 1053 1c3-5 8-9 15-13 16-8 40-10 66-13 42-4 90-8 118-43 14-18 21-40 22-68 31-11 54-41 54-76zM232 64c9 0 16 7 16 16s-7 16-16 16-16-7-16-16 7-16 16-16zm0 384c-9 0-16-7-16-16s7-16 16-16 16 7 16 16-7 16-16 16zm224-320c9 0 16 7 16 16s-7 16-16 16-16-7-16-16 7-16 16-16z"/></svg>